<?xml version="1.0" standalone="no"?>
<!DOCTYPE svg PUBLIC "-//W3C//DTD SVG 20010904//EN"
 "http://www.w3.org/TR/2001/REC-SVG-20010904/DTD/svg10.dtd">
<svg version="1.0" xmlns="http://www.w3.org/2000/svg"
 width="1024.000000pt" height="1024.000000pt" viewBox="0 0 1024.000000 1024.000000"
 preserveAspectRatio="xMidYMid meet">
<metadata>
Created by potrace 1.11, written by Peter Selinger 2001-2013
</metadata>
<g transform="translate(0.000000,1024.000000) scale(0.100000,-0.100000)"
fill="#000000" stroke="none">
<path d="M4909 9766 c-2 -2 -38 -7 -79 -10 -128 -11 -152 -14 -290 -41 -199
-39 -391 -93 -540 -153 -14 -5 -45 -18 -70 -28 -256 -101 -575 -293 -810 -487
-112 -93 -340 -321 -421 -422 -35 -44 -67 -82 -70 -85 -3 -3 -42 -57 -86 -120
-182 -261 -320 -539 -416 -835 -33 -103 -64 -214 -73 -260 -2 -11 -10 -51 -18
-90 -17 -85 -37 -205 -41 -248 -19 -211 -24 -373 -13 -442 18 -119 110 -240
224 -296 115 -57 272 -51 384 14 52 30 136 120 158 169 38 84 41 100 47 268 2
74 6 144 8 155 3 11 8 46 12 79 18 149 84 408 131 513 8 17 14 34 14 37 0 4
18 45 40 92 22 47 40 87 40 89 0 4 66 119 91 160 10 17 22 37 26 45 3 8 9 17
12 20 3 3 21 28 40 55 239 349 596 642 999 819 82 35 268 101 314 110 12 2 61
14 108 25 47 11 105 22 130 26 25 3 61 7 80 10 105 13 152 16 287 17 133 0
233 -5 303 -17 14 -2 43 -7 65 -10 114 -16 293 -62 430 -111 391 -141 770
-413 1028 -739 43 -55 85 -108 93 -118 8 -9 14 -19 14 -21 0 -4 33 -58 88
-141 7 -11 44 -83 82 -160 121 -247 198 -511 227 -785 15 -143 7 -405 -16
-530 -12 -63 -23 -119 -25 -125 -1 -5 -6 -23 -11 -40 -27 -107 -74 -231 -132
-350 -40 -83 -113 -216 -122 -225 -3 -3 -24 -32 -46 -65 -22 -33 -74 -100
-115 -150 -325 -393 -761 -663 -1428 -885 -248 -82 -445 -139 -1022 -295 -42
-11 -186 -72 -264 -111 -294 -148 -552 -379 -731 -653 -84 -129 -124 -206
-178 -342 -93 -230 -132 -438 -132 -699 0 -122 11 -296 20 -310 2 -3 6 -25 10
-50 4 -25 8 -47 10 -51 2 -3 7 -20 10 -39 19 -107 120 -358 206 -510 100 -177
309 -415 469 -534 30 -22 57 -43 60 -47 8 -9 98 -69 104 -69 3 0 22 -12 43
-26 56 -38 225 -117 326 -153 147 -52 236 -72 407 -95 88 -12 408 -14 455 -3
11 3 43 8 70 11 319 42 678 208 944 438 223 192 391 426 521 723 30 69 85 247
96 315 3 14 9 50 15 80 25 136 31 363 15 535 -19 206 -93 448 -200 655 -35 69
-160 268 -175 280 -4 3 -22 25 -40 48 -56 72 -158 177 -232 238 -38 32 -69 61
-69 65 0 4 10 11 23 15 12 3 87 38 167 77 162 80 348 187 490 285 555 382 976
937 1175 1553 51 159 79 282 110 489 18 119 24 386 12 550 -7 91 -10 116 -21
198 -3 20 -8 54 -11 75 -2 21 -6 41 -9 45 -2 4 -7 27 -10 52 -19 141 -120 468
-201 651 -169 381 -387 698 -678 985 -381 376 -795 623 -1312 784 -48 15 -227
59 -264 65 -19 3 -37 7 -40 9 -3 2 -28 7 -56 10 -27 4 -57 9 -65 11 -8 2 -37
7 -65 10 -27 4 -63 8 -80 11 -40 6 -550 15 -556 10z m401 -6320 c14 -3 39 -8
55 -12 64 -13 163 -49 237 -84 324 -160 548 -468 599 -829 14 -103 6 -292 -16
-376 -9 -33 -19 -70 -21 -81 -12 -62 -79 -199 -145 -294 -121 -177 -296 -317
-489 -393 -308 -121 -622 -102 -917 55 -109 57 -257 181 -322 268 -14 19 -29
37 -32 40 -13 10 -91 144 -114 194 -28 62 -52 132 -66 194 -6 26 -13 56 -16
67 -10 38 -12 290 -2 350 56 355 302 673 637 824 40 18 78 34 85 35 7 2 32 9
57 16 94 27 179 37 310 35 74 -2 146 -6 160 -9z"/>
<path d="M5052 2769 c-113 -21 -226 -104 -279 -207 -37 -70 -45 -99 -48 -181
-7 -163 80 -308 229 -380 58 -28 83 -34 154 -37 105 -5 170 13 251 67 108 72
171 186 176 317 5 143 -45 254 -156 342 -87 68 -216 100 -327 79z"/>
</g>
</svg>
