<?xml version="1.0" encoding="utf-8"?>
<!-- Generator: Adobe Illustrator 15.0.0, SVG Export Plug-In . SVG Version: 6.00 Build 0)  -->
<!DOCTYPE svg PUBLIC "-//W3C//DTD SVG 1.1//EN" "http://www.w3.org/Graphics/SVG/1.1/DTD/svg11.dtd">
<svg version="1.1" id="Layer_1" xmlns="http://www.w3.org/2000/svg" xmlns:xlink="http://www.w3.org/1999/xlink" x="0px" y="0px"
	 width="16px" height="16px" viewBox="0 0 16 16" enable-background="new 0 0 16 16" xml:space="preserve">
<polygon opacity="0.2" points="-113.791,48.814 -114.791,47.814 -115.791,46.814 -116.791,45.814 -117.791,44.814 -118.791,43.814 
	-119.791,42.814 -120.791,41.814 -121.791,40.814 -122.791,39.814 -123.791,38.814 -124.791,37.814 -125.791,36.814 
	-126.791,35.814 -127.791,34.814 -128.787,33.818 -128.791,33.814 -129.787,32.818 -129.791,32.814 -130.787,31.818 
	-130.791,31.814 -131.787,30.818 -131.791,30.814 -132.787,29.818 -132.791,29.814 -133.787,28.818 -133.791,28.814 
	-134.787,27.818 -134.791,27.814 -135.787,26.818 -135.791,26.814 -136.787,25.818 -136.791,25.814 -137.787,24.818 
	-138.787,23.818 -139.787,22.818 -140.787,21.818 -141.787,20.818 -142.787,19.818 -143.787,18.818 -144.787,17.818 
	-145.787,16.818 -146.787,15.818 -147.787,14.818 -148.787,13.818 -149.787,12.818 -150.787,11.818 -151.787,10.818 -152.787,9.818 
	-152.787,9.818 -152.791,9.814 -152.791,9.814 -168.787,-6.181 -169.787,-7.181 -170.787,-8.181 -175.029,-3.939 -174.029,-2.939 
	-173.029,-1.939 -172.029,-0.939 -171.029,0.061 -166.314,4.776 -195.148,4.776 -195.148,10.775 -194.148,10.775 -194.148,11.775 
	-193.148,11.775 -193.148,12.775 -192.148,12.775 -192.148,13.775 -191.148,13.775 -191.148,14.775 -190.148,14.775 
	-190.148,15.775 -189.148,15.775 -189.148,16.775 -188.148,16.775 -188.148,17.775 -187.148,17.775 -187.148,18.775 
	-186.148,18.775 -186.148,19.775 -185.148,19.775 -185.148,20.775 -184.148,20.775 -184.148,21.775 -183.148,21.775 
	-183.148,22.775 -182.148,22.775 -182.148,23.775 -181.148,23.775 -181.148,24.775 -180.148,24.775 -180.148,25.775 
	-179.148,25.775 -179.148,26.775 -178.148,26.775 -178.148,27.775 -177.148,27.775 -177.148,28.775 -176.148,28.775 
	-176.148,29.775 -175.148,29.775 -175.148,30.775 -174.148,30.775 -174.148,31.775 -173.148,31.775 -173.148,32.775 
	-172.148,32.775 -172.148,33.775 -171.148,33.775 -171.148,34.775 -170.148,34.775 -170.148,35.775 -169.148,35.775 
	-169.148,36.775 -168.148,36.775 -168.148,37.775 -167.148,37.775 -167.148,38.775 -166.148,38.775 -166.148,39.775 
	-165.148,39.775 -165.148,40.775 -164.148,40.775 -164.148,41.775 -163.148,41.775 -163.148,42.775 -162.148,42.775 
	-162.148,43.775 -161.148,43.775 -161.148,44.775 -160.148,44.775 -160.148,45.775 -159.148,45.775 -159.148,46.775 
	-158.148,46.775 -158.148,47.775 -157.148,47.775 -157.148,48.775 -156.148,48.775 -156.148,49.775 -155.148,49.775 
	-155.148,50.775 -154.148,50.775 -154.148,51.775 -153.148,51.775 -153.148,52.775 -141.667,52.775 -140.951,53.491 
	-140.709,53.733 -139.951,54.491 -139.709,54.733 -138.951,55.491 -138.709,55.733 -137.951,56.491 -137.709,56.733 
	-136.951,57.491 -136.709,57.733 -135.951,58.491 -135.709,58.733 -134.951,59.491 -134.709,59.733 -133.951,60.491 
	-133.709,60.733 -132.951,61.491 -132.709,61.733 -131.709,62.733 -130.709,63.733 -129.709,64.733 -128.709,65.733 
	-112.791,49.814 "/>
<polygon opacity="0.2" points="20.209,144.814 19.209,143.814 18.209,142.814 17.209,141.814 16.209,140.814 15.209,139.814 
	14.209,138.814 13.209,137.814 12.209,136.814 11.209,135.814 10.209,134.814 9.209,133.814 8.209,132.814 7.209,131.814 
	6.209,130.814 5.213,129.818 5.209,129.814 4.213,128.818 4.209,128.814 3.213,127.818 3.209,127.814 2.213,126.818 2.209,126.814 
	1.213,125.818 1.209,125.814 0.213,124.818 0.209,124.814 -0.787,123.818 -0.791,123.814 -1.787,122.818 -1.791,122.814 
	-2.787,121.818 -2.791,121.814 -3.787,120.818 -4.787,119.818 -5.787,118.818 -6.787,117.818 -7.787,116.818 -8.787,115.818 
	-9.787,114.818 -10.787,113.818 -11.787,112.818 -12.787,111.818 -13.787,110.818 -14.787,109.818 -15.787,108.818 -16.787,107.818 
	-17.787,106.818 -18.787,105.818 -18.787,105.818 -18.791,105.814 -18.791,105.814 -34.787,89.818 -35.787,88.818 -36.787,87.818 
	-41.029,92.061 -40.029,93.061 -39.029,94.061 -38.029,95.061 -37.029,96.061 -32.314,100.775 -61.148,100.775 -61.148,106.775 
	-60.148,106.775 -60.148,107.775 -59.148,107.775 -59.148,108.775 -58.148,108.775 -58.148,109.775 -57.148,109.775 
	-57.148,110.775 -56.148,110.775 -56.148,111.775 -55.148,111.775 -55.148,112.775 -54.148,112.775 -54.148,113.775 
	-53.148,113.775 -53.148,114.775 -52.148,114.775 -52.148,115.775 -51.148,115.775 -51.148,116.775 -50.148,116.775 
	-50.148,117.775 -49.148,117.775 -49.148,118.775 -48.148,118.775 -48.148,119.775 -47.148,119.775 -47.148,120.775 
	-46.148,120.775 -46.148,121.775 -45.148,121.775 -45.148,122.775 -44.148,122.775 -44.148,123.775 -43.148,123.775 
	-43.148,124.775 -42.148,124.775 -42.148,125.775 -41.148,125.775 -41.148,126.775 -40.148,126.775 -40.148,127.775 
	-39.148,127.775 -39.148,128.775 -38.148,128.775 -38.148,129.775 -37.148,129.775 -37.148,130.775 -36.148,130.775 
	-36.148,131.775 -35.148,131.775 -35.148,132.775 -34.148,132.775 -34.148,133.775 -33.148,133.775 -33.148,134.775 
	-32.148,134.775 -32.148,135.775 -31.148,135.775 -31.148,136.775 -30.148,136.775 -30.148,137.775 -29.148,137.775 
	-29.148,138.775 -28.148,138.775 -28.148,139.775 -27.148,139.775 -27.148,140.775 -26.148,140.775 -26.148,141.775 
	-25.148,141.775 -25.148,142.775 -24.148,142.775 -24.148,143.775 -23.148,143.775 -23.148,144.775 -22.148,144.775 
	-22.148,145.775 -21.148,145.775 -21.148,146.775 -20.148,146.775 -20.148,147.775 -19.148,147.775 -19.148,148.775 -7.667,148.775 
	-6.951,149.491 -6.709,149.733 -5.951,150.491 -5.709,150.733 -4.951,151.491 -4.709,151.733 -3.951,152.491 -3.709,152.733 
	-2.951,153.491 -2.709,153.733 -1.951,154.491 -1.709,154.733 -0.951,155.491 -0.709,155.733 0.049,156.491 0.291,156.733 
	1.049,157.491 1.291,157.733 2.291,158.733 3.291,159.733 4.291,160.733 5.291,161.733 21.209,145.814 "/>
<polygon fill="#FFFFFF" points="-170.787,-8.181 -175.029,-3.939 -166.314,4.776 -195.148,4.776 -195.148,10.775 -166.236,10.775 
	-174.951,19.491 -170.709,23.733 -154.791,7.815 "/>
<polygon fill="#339DE5" points="-36.787,87.818 -41.029,92.061 -32.314,100.775 -61.148,100.775 -61.148,106.775 -32.236,106.775 
	-40.951,115.491 -36.709,119.733 -20.791,103.814 "/>
<line fill="none" stroke="#FFFFFF" stroke-width="2" stroke-miterlimit="10" x1="0.783" y1="0.771" x2="15.24" y2="15.229"/>
<line fill="none" stroke="#FFFFFF" stroke-width="2" stroke-miterlimit="10" x1="0.783" y1="15.229" x2="15.24" y2="0.771"/>
</svg>
