<?xml version="1.0" standalone="no"?>
<!DOCTYPE svg PUBLIC "-//W3C//DTD SVG 20010904//EN"
 "http://www.w3.org/TR/2001/REC-SVG-20010904/DTD/svg10.dtd">
<svg version="1.0" xmlns="http://www.w3.org/2000/svg"
 width="260.000000pt" height="260.000000pt" viewBox="0 0 260.000000 260.000000"
 preserveAspectRatio="xMidYMid meet">
<metadata>
Created by potrace 1.11, written by Peter Selinger 2001-2013
</metadata>
<g transform="translate(0.000000,260.000000) scale(0.100000,-0.100000)"
fill="#000000" stroke="none">
<path d="M1110 2487 c-96 -56 -344 -199 -550 -318 l-375 -217 -3 -654 -2 -653
232 -135 c128 -73 381 -219 561 -323 l329 -189 76 45 c43 24 294 169 560 322
l482 278 -2 655 -3 656 -180 104 c-649 375 -925 532 -937 531 -7 0 -92 -46
-188 -102z m263 -881 c77 -38 127 -151 127 -287 0 -199 -90 -314 -246 -312
-157 1 -244 114 -244 313 0 141 49 247 133 290 53 27 171 25 230 -4z m543 5
c89 -40 138 -145 138 -291 0 -203 -84 -310 -244 -310 -156 0 -240 105 -241
300 -1 162 46 263 141 304 49 21 155 20 206 -3z m-996 -33 c0 -37 -7 -49 -71
-120 -45 -49 -66 -80 -57 -82 7 -2 25 -7 40 -10 37 -8 88 -54 104 -93 19 -45
17 -110 -5 -160 -36 -79 -150 -126 -253 -104 -65 14 -138 46 -138 61 0 9 26
68 35 78 1 2 20 -7 41 -20 31 -18 54 -23 111 -23 62 0 75 3 97 24 36 34 36 98
0 132 -22 20 -38 24 -105 28 l-79 3 0 34 c0 28 13 48 70 113 39 44 70 82 70
85 0 3 -47 6 -105 6 l-105 0 0 45 0 45 175 0 175 0 0 -42z"/>
<path d="M1171 1514 c-44 -36 -65 -114 -59 -218 7 -137 54 -200 146 -199 103
1 137 59 137 228 0 117 -10 151 -57 195 -34 31 -127 28 -167 -6z"/>
<path d="M1750 1533 c-24 -12 -43 -34 -60 -68 -21 -43 -25 -63 -25 -145 1
-154 46 -225 145 -225 99 0 145 71 145 225 0 147 -40 215 -132 226 -25 3 -50
-1 -73 -13z"/>
</g>
</svg>
