<?xml version="1.0" standalone="no"?>
<!DOCTYPE svg PUBLIC "-//W3C//DTD SVG 20010904//EN"
 "http://www.w3.org/TR/2001/REC-SVG-20010904/DTD/svg10.dtd">
<svg version="1.0" xmlns="http://www.w3.org/2000/svg"
 width="260.000000pt" height="260.000000pt" viewBox="0 0 260.000000 260.000000"
 preserveAspectRatio="xMidYMid meet">
<metadata>
Created by potrace 1.11, written by Peter Selinger 2001-2013
</metadata>
<g transform="translate(0.000000,260.000000) scale(0.100000,-0.100000)"
fill="#000000" stroke="none">
<path d="M710 2313 c-110 -14 -228 -54 -315 -107 -27 -16 -52 -33 -55 -36 -3
-3 -20 -16 -38 -29 -58 -41 -159 -169 -202 -257 -160 -327 -72 -754 229 -1114
140 -168 325 -319 512 -417 117 -62 223 -101 354 -129 11 -2 57 -4 101 -5 393
-2 934 383 1155 822 84 167 119 300 125 464 11 347 -163 617 -487 759 -121 53
-340 66 -480 28 -88 -24 -180 -68 -258 -123 -53 -38 -55 -39 -75 -21 -105 92
-292 161 -451 166 -49 1 -101 1 -115 -1z m235 -258 c48 -16 152 -71 186 -98
14 -11 16 -28 13 -103 -3 -58 1 -109 10 -144 l15 -55 -46 -85 c-59 -110 -136
-228 -237 -365 -124 -166 -286 -357 -300 -353 -21 5 -122 130 -174 215 -67
109 -111 213 -139 327 -13 54 -12 224 2 276 45 172 174 315 335 373 30 11 71
23 90 27 57 11 191 3 245 -15z m992 6 c180 -49 319 -182 379 -361 26 -75 26
-248 0 -345 -24 -91 -112 -273 -173 -356 -70 -96 -128 -159 -139 -151 -16 12
-195 222 -265 312 -120 155 -204 282 -275 414 l-42 78 14 52 c15 53 21 196 10
215 -17 27 141 122 240 144 68 16 190 15 251 -2z m-563 -805 c91 -141 218
-305 378 -489 38 -42 68 -81 68 -86 0 -11 -136 -99 -215 -138 -61 -31 -166
-68 -220 -78 -37 -7 -141 -7 -174 0 -53 10 -159 50 -226 83 -68 34 -201 117
-209 131 -3 4 8 20 23 37 114 123 353 436 441 577 45 72 57 85 65 71 6 -9 37
-57 69 -108z"/>
</g>
</svg>
