<?xml version="1.0" standalone="no"?>
<!DOCTYPE svg PUBLIC "-//W3C//DTD SVG 20010904//EN"
 "http://www.w3.org/TR/2001/REC-SVG-20010904/DTD/svg10.dtd">
<svg version="1.0" xmlns="http://www.w3.org/2000/svg"
 width="260.000000pt" height="260.000000pt" viewBox="0 0 260.000000 260.000000"
 preserveAspectRatio="xMidYMid meet">
<metadata>
Created by potrace 1.11, written by Peter Selinger 2001-2013
</metadata>
<g transform="translate(0.000000,260.000000) scale(0.100000,-0.100000)"
fill="#000000" stroke="none">
<path d="M798 2147 l-488 -282 0 -565 0 -565 476 -275 c262 -151 484 -279 494
-284 15 -7 123 51 509 275 l491 283 0 566 0 567 -488 281 c-269 155 -493 282
-498 282 -5 -1 -228 -128 -496 -283z m571 -539 c48 -23 93 -85 113 -153 18
-62 15 -221 -5 -280 -37 -109 -113 -165 -227 -165 -161 0 -245 108 -244 315 0
129 38 226 106 273 63 45 176 49 257 10z m551 0 c55 -28 104 -97 119 -168 30
-140 0 -301 -69 -370 -67 -67 -185 -81 -281 -32 -48 24 -58 35 -88 93 -28 57
-34 81 -38 155 -13 223 73 344 242 344 53 0 82 -5 115 -22z m-1000 -27 c0 -32
-8 -48 -58 -102 -93 -103 -90 -96 -41 -109 130 -35 169 -212 67 -307 -64 -60
-198 -72 -299 -27 -33 15 -59 31 -59 37 0 5 9 25 21 43 l20 34 42 -22 c31 -16
60 -22 110 -23 65 0 70 2 98 33 36 40 37 71 3 111 -30 36 -91 56 -146 47 l-38
-6 0 41 c0 36 7 49 65 114 36 40 65 75 65 79 0 3 -47 6 -105 6 l-105 0 0 45 0
45 180 0 180 0 0 -39z"/>
<path d="M1195 1536 c-40 -18 -62 -52 -81 -128 -29 -112 2 -244 68 -292 34
-24 108 -25 144 -1 88 57 98 306 16 395 -33 36 -100 48 -147 26z"/>
<path d="M1754 1540 c-32 -13 -72 -66 -85 -113 -16 -60 -14 -168 6 -226 49
-149 225 -141 266 12 6 23 11 77 11 120 -1 102 -32 175 -85 200 -38 18 -79 21
-113 7z"/>
</g>
</svg>
