<?xml version="1.0" encoding="utf-8"?>
<!-- Generator: Adobe Illustrator 15.0.0, SVG Export Plug-In . SVG Version: 6.00 Build 0)  -->
<!DOCTYPE svg PUBLIC "-//W3C//DTD SVG 1.1//EN" "http://www.w3.org/Graphics/SVG/1.1/DTD/svg11.dtd">
<svg version="1.1" id="Layer_1" xmlns="http://www.w3.org/2000/svg" xmlns:xlink="http://www.w3.org/1999/xlink" x="0px" y="0px"
	 width="32px" height="32px" viewBox="0 0 32 32" enable-background="new 0 0 32 32" xml:space="preserve">
<polygon fill="#FFFFFF" points="173.514,5.295 162.873,-5.456 162.873,3.144 165.002,5.295 175.641,16.045 165.002,26.795 
	162.873,28.945 162.873,37.546 173.514,26.795 184.154,16.045 "/>
<rect x="-68.958" y="-87" fill="#339DE5" width="77.001" height="64"/>
<polygon opacity="0.2" points="-105.791,56.814 -106.791,55.814 -107.791,54.814 -108.791,53.814 -109.791,52.814 -110.791,51.814 
	-111.791,50.814 -112.791,49.814 -113.791,48.814 -114.791,47.814 -115.791,46.814 -116.791,45.814 -117.791,44.814 
	-118.791,43.814 -119.791,42.814 -120.787,41.818 -120.791,41.814 -121.787,40.818 -121.791,40.814 -122.787,39.818 
	-122.791,39.814 -123.787,38.818 -123.791,38.814 -124.787,37.818 -124.791,37.814 -125.787,36.818 -125.791,36.814 
	-126.787,35.818 -126.791,35.814 -127.787,34.818 -127.791,34.814 -128.787,33.818 -128.791,33.814 -129.787,32.818 
	-130.787,31.818 -131.787,30.818 -132.787,29.818 -133.787,28.818 -134.787,27.818 -135.787,26.818 -136.787,25.818 
	-137.787,24.818 -138.787,23.818 -139.787,22.818 -140.787,21.818 -141.787,20.818 -142.787,19.818 -143.787,18.818 
	-144.787,17.818 -144.787,17.818 -144.791,17.814 -144.791,17.814 -160.787,1.819 -161.787,0.819 -162.787,-0.181 -167.029,4.061 
	-166.029,5.061 -165.029,6.061 -164.029,7.061 -163.029,8.061 -158.314,12.776 -187.148,12.776 -187.148,18.775 -186.148,18.775 
	-186.148,19.775 -185.148,19.775 -185.148,20.775 -184.148,20.775 -184.148,21.775 -183.148,21.775 -183.148,22.775 
	-182.148,22.775 -182.148,23.775 -181.148,23.775 -181.148,24.775 -180.148,24.775 -180.148,25.775 -179.148,25.775 
	-179.148,26.775 -178.148,26.775 -178.148,27.775 -177.148,27.775 -177.148,28.775 -176.148,28.775 -176.148,29.775 
	-175.148,29.775 -175.148,30.775 -174.148,30.775 -174.148,31.775 -173.148,31.775 -173.148,32.775 -172.148,32.775 
	-172.148,33.775 -171.148,33.775 -171.148,34.775 -170.148,34.775 -170.148,35.775 -169.148,35.775 -169.148,36.775 
	-168.148,36.775 -168.148,37.775 -167.148,37.775 -167.148,38.775 -166.148,38.775 -166.148,39.775 -165.148,39.775 
	-165.148,40.775 -164.148,40.775 -164.148,41.775 -163.148,41.775 -163.148,42.775 -162.148,42.775 -162.148,43.775 
	-161.148,43.775 -161.148,44.775 -160.148,44.775 -160.148,45.775 -159.148,45.775 -159.148,46.775 -158.148,46.775 
	-158.148,47.775 -157.148,47.775 -157.148,48.775 -156.148,48.775 -156.148,49.775 -155.148,49.775 -155.148,50.775 
	-154.148,50.775 -154.148,51.775 -153.148,51.775 -153.148,52.775 -152.148,52.775 -152.148,53.775 -151.148,53.775 
	-151.148,54.775 -150.148,54.775 -150.148,55.775 -149.148,55.775 -149.148,56.775 -148.148,56.775 -148.148,57.775 
	-147.148,57.775 -147.148,58.775 -146.148,58.775 -146.148,59.775 -145.148,59.775 -145.148,60.775 -133.667,60.775 
	-132.951,61.491 -132.709,61.733 -131.951,62.491 -131.709,62.733 -130.951,63.491 -130.709,63.733 -129.951,64.491 
	-129.709,64.733 -128.951,65.491 -128.709,65.733 -127.951,66.491 -127.709,66.733 -126.951,67.491 -126.709,67.733 
	-125.951,68.491 -125.709,68.733 -124.951,69.491 -124.709,69.733 -123.709,70.733 -122.709,71.733 -121.709,72.733 
	-120.709,73.733 -104.791,57.814 "/>
<polygon opacity="0.2" points="28.209,152.814 27.209,151.814 26.209,150.814 25.209,149.814 24.209,148.814 23.209,147.814 
	22.209,146.814 21.209,145.814 20.209,144.814 19.209,143.814 18.209,142.814 17.209,141.814 16.209,140.814 15.209,139.814 
	14.209,138.814 13.213,137.818 13.209,137.814 12.213,136.818 12.209,136.814 11.213,135.818 11.209,135.814 10.213,134.818 
	10.209,134.814 9.213,133.818 9.209,133.814 8.213,132.818 8.209,132.814 7.213,131.818 7.209,131.814 6.213,130.818 6.209,130.814 
	5.213,129.818 5.209,129.814 4.213,128.818 3.213,127.818 2.213,126.818 1.213,125.818 0.213,124.818 -0.787,123.818 
	-1.787,122.818 -2.787,121.818 -3.787,120.818 -4.787,119.818 -5.787,118.818 -6.787,117.818 -7.787,116.818 -8.787,115.818 
	-9.787,114.818 -10.787,113.818 -10.787,113.818 -10.791,113.814 -10.791,113.814 -26.787,97.818 -27.787,96.818 -28.787,95.818 
	-33.029,100.061 -32.029,101.061 -31.029,102.061 -30.029,103.061 -29.029,104.061 -24.314,108.775 -53.148,108.775 
	-53.148,114.775 -52.148,114.775 -52.148,115.775 -51.148,115.775 -51.148,116.775 -50.148,116.775 -50.148,117.775 
	-49.148,117.775 -49.148,118.775 -48.148,118.775 -48.148,119.775 -47.148,119.775 -47.148,120.775 -46.148,120.775 
	-46.148,121.775 -45.148,121.775 -45.148,122.775 -44.148,122.775 -44.148,123.775 -43.148,123.775 -43.148,124.775 
	-42.148,124.775 -42.148,125.775 -41.148,125.775 -41.148,126.775 -40.148,126.775 -40.148,127.775 -39.148,127.775 
	-39.148,128.775 -38.148,128.775 -38.148,129.775 -37.148,129.775 -37.148,130.775 -36.148,130.775 -36.148,131.775 
	-35.148,131.775 -35.148,132.775 -34.148,132.775 -34.148,133.775 -33.148,133.775 -33.148,134.775 -32.148,134.775 
	-32.148,135.775 -31.148,135.775 -31.148,136.775 -30.148,136.775 -30.148,137.775 -29.148,137.775 -29.148,138.775 
	-28.148,138.775 -28.148,139.775 -27.148,139.775 -27.148,140.775 -26.148,140.775 -26.148,141.775 -25.148,141.775 
	-25.148,142.775 -24.148,142.775 -24.148,143.775 -23.148,143.775 -23.148,144.775 -22.148,144.775 -22.148,145.775 
	-21.148,145.775 -21.148,146.775 -20.148,146.775 -20.148,147.775 -19.148,147.775 -19.148,148.775 -18.148,148.775 
	-18.148,149.775 -17.148,149.775 -17.148,150.775 -16.148,150.775 -16.148,151.775 -15.148,151.775 -15.148,152.775 
	-14.148,152.775 -14.148,153.775 -13.148,153.775 -13.148,154.775 -12.148,154.775 -12.148,155.775 -11.148,155.775 
	-11.148,156.775 0.333,156.775 1.049,157.491 1.291,157.733 2.049,158.491 2.291,158.733 3.049,159.491 3.291,159.733 
	4.049,160.491 4.291,160.733 5.049,161.491 5.291,161.733 6.049,162.491 6.291,162.733 7.049,163.491 7.291,163.733 8.049,164.491 
	8.291,164.733 9.049,165.491 9.291,165.733 10.291,166.733 11.291,167.733 12.291,168.733 13.291,169.733 29.209,153.814 "/>
<polygon fill="#FFFFFF" points="-162.787,-0.181 -167.029,4.061 -158.314,12.776 -187.148,12.776 -187.148,18.775 -158.236,18.775 
	-166.951,27.491 -162.709,31.733 -146.791,15.815 "/>
<polygon fill="#339DE5" points="-28.787,95.818 -33.029,100.061 -24.314,108.775 -53.148,108.775 -53.148,114.775 -24.236,114.775 
	-32.951,123.491 -28.709,127.733 -12.791,111.814 "/>
<polygon fill="#FFFFFF" points="-33.295,29.498 -35.223,27.199 -22.001,16.116 -35.223,5.032 -33.295,2.733 -17.331,16.116 "/>
<line fill="none" stroke="#FFFFFF" stroke-width="3" stroke-linecap="square" stroke-miterlimit="10" x1="-45.666" y1="16.116" x2="-20.916" y2="16.116"/>
<polyline fill="none" stroke="#FFFFFF" stroke-width="3" stroke-linecap="square" stroke-miterlimit="10" points="-33.109,-29.466 
	-19.666,-18.197 -33.109,-6.928 "/>
<line fill="none" stroke="#FFFFFF" stroke-width="3" stroke-linecap="square" stroke-miterlimit="10" x1="-45.666" y1="-18.197" x2="-20.916" y2="-18.197"/>
<line fill="none" stroke="#FFFFFF" stroke-width="3" stroke-linecap="square" stroke-miterlimit="10" x1="6.876" y1="7.167" x2="24.834" y2="25.125"/>
<line fill="none" stroke="#FFFFFF" stroke-width="3" stroke-linecap="square" stroke-miterlimit="10" x1="6.876" y1="25.125" x2="24.834" y2="7.167"/>
<g>
	<g>
		<rect x="50.334" y="2.25" fill="#FFFFFF" width="7.5" height="7.5"/>
		<rect x="60.334" y="2.25" fill="#FFFFFF" width="7.5" height="7.5"/>
		<rect x="70.271" y="2.25" fill="#FFFFFF" width="7.5" height="7.5"/>
	</g>
	<g>
		<rect x="50.334" y="12.406" fill="#FFFFFF" width="7.5" height="7.5"/>
		<rect x="60.334" y="12.406" fill="#FFFFFF" width="7.5" height="7.5"/>
		<rect x="70.271" y="12.406" fill="#FFFFFF" width="7.5" height="7.5"/>
	</g>
	<g>
		<rect x="50.334" y="22.563" fill="#FFFFFF" width="7.5" height="7.5"/>
		<rect x="60.334" y="22.563" fill="#FFFFFF" width="7.5" height="7.5"/>
		<rect x="70.271" y="22.563" fill="#FFFFFF" width="7.5" height="7.5"/>
	</g>
</g>
<line fill="none" stroke="#FFFFFF" stroke-width="3" stroke-linecap="square" stroke-miterlimit="10" x1="105.334" y1="6.828" x2="125.334" y2="6.828"/>
<line fill="none" stroke="#FFFFFF" stroke-width="3" stroke-linecap="square" stroke-miterlimit="10" x1="105.334" y1="15.828" x2="125.334" y2="15.828"/>
<line fill="none" stroke="#FFFFFF" stroke-width="3" stroke-linecap="square" stroke-miterlimit="10" x1="105.334" y1="24.828" x2="125.334" y2="24.828"/>
</svg>
