<?xml version="1.0" encoding="utf-8"?>
<!-- Generator: Adobe Illustrator 15.0.0, SVG Export Plug-In . SVG Version: 6.00 Build 0)  -->
<!DOCTYPE svg PUBLIC "-//W3C//DTD SVG 1.1//EN" "http://www.w3.org/Graphics/SVG/1.1/DTD/svg11.dtd">
<svg version="1.1" id="Layer_1" xmlns="http://www.w3.org/2000/svg" xmlns:xlink="http://www.w3.org/1999/xlink" x="0px" y="0px"
	 width="12px" height="6px" viewBox="0 0 12 6" enable-background="new 0 0 12 6" xml:space="preserve">
<polygon opacity="0.2" points="-212.729,38.752 -213.729,37.752 -214.729,36.752 -215.729,35.752 -216.729,34.752 -217.729,33.752 
	-218.729,32.752 -219.729,31.752 -220.729,30.752 -221.729,29.752 -222.729,28.752 -223.729,27.752 -224.729,26.752 
	-225.729,25.752 -226.729,24.752 -227.725,23.756 -227.729,23.752 -228.725,22.756 -228.729,22.752 -229.725,21.756 
	-229.729,21.752 -230.725,20.756 -230.729,20.752 -231.725,19.756 -231.729,19.752 -232.725,18.756 -232.729,18.752 
	-233.725,17.756 -233.729,17.752 -234.725,16.756 -234.729,16.752 -235.725,15.756 -235.729,15.752 -236.725,14.756 
	-237.725,13.756 -238.725,12.756 -239.725,11.756 -240.725,10.756 -241.725,9.756 -242.725,8.756 -243.725,7.756 -244.725,6.756 
	-245.725,5.756 -246.725,4.756 -247.725,3.756 -248.725,2.756 -249.725,1.756 -250.725,0.756 -251.725,-0.244 -251.725,-0.244 
	-251.729,-0.248 -251.729,-0.248 -267.725,-16.244 -268.725,-17.244 -269.725,-18.244 -273.967,-14.001 -272.967,-13.001 
	-271.967,-12.001 -270.967,-11.001 -269.967,-10.001 -265.252,-5.287 -294.085,-5.287 -294.085,0.713 -293.085,0.713 
	-293.085,1.713 -292.085,1.713 -292.085,2.713 -291.085,2.713 -291.085,3.713 -290.085,3.713 -290.085,4.713 -289.085,4.713 
	-289.085,5.713 -288.085,5.713 -288.085,6.713 -287.086,6.713 -287.086,7.713 -286.086,7.713 -286.086,8.713 -285.086,8.713 
	-285.086,9.713 -284.086,9.713 -284.086,10.713 -283.086,10.713 -283.086,11.713 -282.086,11.713 -282.086,12.713 -281.086,12.713 
	-281.086,13.713 -280.086,13.713 -280.086,14.713 -279.086,14.713 -279.086,15.713 -278.086,15.713 -278.086,16.713 
	-277.086,16.713 -277.086,17.713 -276.086,17.713 -276.086,18.713 -275.086,18.713 -275.086,19.713 -274.086,19.713 
	-274.086,20.713 -273.086,20.713 -273.086,21.713 -272.086,21.713 -272.086,22.713 -271.086,22.713 -271.086,23.713 
	-270.086,23.713 -270.086,24.713 -269.086,24.713 -269.086,25.713 -268.086,25.713 -268.086,26.713 -267.086,26.713 
	-267.086,27.713 -266.086,27.713 -266.086,28.713 -265.086,28.713 -265.086,29.713 -264.086,29.713 -264.086,30.713 
	-263.086,30.713 -263.086,31.713 -262.086,31.713 -262.086,32.713 -261.086,32.713 -261.086,33.713 -260.086,33.713 
	-260.086,34.713 -259.086,34.713 -259.086,35.713 -258.086,35.713 -258.086,36.713 -257.086,36.713 -257.086,37.713 
	-256.086,37.713 -256.086,38.713 -255.086,38.713 -255.086,39.713 -254.086,39.713 -254.086,40.713 -253.086,40.713 
	-253.086,41.713 -252.086,41.713 -252.086,42.713 -240.604,42.713 -239.889,43.429 -239.646,43.671 -238.889,44.429 
	-238.646,44.671 -237.889,45.429 -237.646,45.671 -236.889,46.429 -236.646,46.671 -235.889,47.429 -235.646,47.671 
	-234.889,48.429 -234.646,48.671 -233.889,49.429 -233.646,49.671 -232.889,50.429 -232.646,50.671 -231.889,51.429 
	-231.646,51.671 -230.646,52.671 -229.646,53.671 -228.646,54.671 -227.646,55.671 -211.729,39.752 "/>
<polygon opacity="0.2" points="-78.729,134.752 -79.729,133.752 -80.729,132.752 -81.729,131.752 -82.729,130.752 -83.729,129.752 
	-84.729,128.752 -85.729,127.752 -86.729,126.752 -87.729,125.752 -88.729,124.752 -89.729,123.752 -90.729,122.752 
	-91.729,121.752 -92.729,120.752 -93.725,119.756 -93.729,119.752 -94.725,118.756 -94.729,118.752 -95.725,117.756 
	-95.729,117.752 -96.725,116.756 -96.729,116.752 -97.725,115.756 -97.729,115.752 -98.725,114.756 -98.729,114.752 
	-99.725,113.756 -99.729,113.752 -100.725,112.756 -100.729,112.752 -101.725,111.756 -101.729,111.752 -102.725,110.756 
	-103.725,109.756 -104.725,108.756 -105.725,107.756 -106.725,106.756 -107.725,105.756 -108.725,104.756 -109.725,103.756 
	-110.725,102.756 -111.725,101.756 -112.725,100.756 -113.725,99.756 -114.725,98.756 -115.725,97.756 -116.725,96.756 
	-117.725,95.756 -117.725,95.756 -117.729,95.752 -117.729,95.752 -133.725,79.756 -134.725,78.756 -135.725,77.756 
	-139.967,81.998 -138.967,82.998 -137.967,83.998 -136.967,84.998 -135.967,85.998 -131.252,90.713 -160.085,90.713 
	-160.085,96.713 -159.085,96.713 -159.085,97.713 -158.085,97.713 -158.085,98.713 -157.085,98.713 -157.085,99.713 
	-156.085,99.713 -156.085,100.713 -155.085,100.713 -155.085,101.713 -154.085,101.713 -154.085,102.713 -153.086,102.713 
	-153.086,103.713 -152.086,103.713 -152.086,104.713 -151.086,104.713 -151.086,105.713 -150.086,105.713 -150.086,106.713 
	-149.086,106.713 -149.086,107.713 -148.086,107.713 -148.086,108.713 -147.086,108.713 -147.086,109.713 -146.086,109.713 
	-146.086,110.713 -145.086,110.713 -145.086,111.713 -144.086,111.713 -144.086,112.713 -143.086,112.713 -143.086,113.713 
	-142.086,113.713 -142.086,114.713 -141.086,114.713 -141.086,115.713 -140.086,115.713 -140.086,116.713 -139.086,116.713 
	-139.086,117.713 -138.086,117.713 -138.086,118.713 -137.086,118.713 -137.086,119.713 -136.086,119.713 -136.086,120.713 
	-135.086,120.713 -135.086,121.713 -134.086,121.713 -134.086,122.713 -133.086,122.713 -133.086,123.713 -132.086,123.713 
	-132.086,124.713 -131.086,124.713 -131.086,125.713 -130.086,125.713 -130.086,126.713 -129.086,126.713 -129.086,127.713 
	-128.086,127.713 -128.086,128.713 -127.086,128.713 -127.086,129.713 -126.086,129.713 -126.086,130.713 -125.086,130.713 
	-125.086,131.713 -124.086,131.713 -124.086,132.713 -123.086,132.713 -123.086,133.713 -122.086,133.713 -122.086,134.713 
	-121.086,134.713 -121.086,135.713 -120.086,135.713 -120.086,136.713 -119.086,136.713 -119.086,137.713 -118.086,137.713 
	-118.086,138.713 -106.604,138.713 -105.889,139.429 -105.646,139.671 -104.889,140.429 -104.646,140.671 -103.889,141.429 
	-103.646,141.671 -102.889,142.429 -102.646,142.671 -101.889,143.429 -101.646,143.671 -100.889,144.429 -100.646,144.671 
	-99.889,145.429 -99.646,145.671 -98.889,146.429 -98.646,146.671 -97.889,147.429 -97.646,147.671 -96.646,148.671 
	-95.646,149.671 -94.646,150.671 -93.646,151.671 -77.729,135.752 "/>
<polygon fill="#FFFFFF" points="-269.725,-18.244 -273.967,-14.001 -265.252,-5.287 -294.085,-5.287 -294.085,0.713 -265.174,0.713 
	-273.889,9.429 -269.646,13.671 -253.729,-2.248 "/>
<polygon fill="#339DE5" points="-135.725,77.756 -139.967,81.998 -131.252,90.713 -160.085,90.713 -160.085,96.713 -131.174,96.713 
	-139.889,105.429 -135.646,109.671 -119.729,93.752 "/>
<polygon fill="#FFFFFF" points="5.951,5.839 0.354,1.784 1.528,0.165 5.951,3.37 10.374,0.165 11.548,1.784 "/>
</svg>
