<?xml version="1.0" encoding="utf-8"?>
<!-- Generator: Adobe Illustrator 15.0.0, SVG Export Plug-In . SVG Version: 6.00 Build 0)  -->
<!DOCTYPE svg PUBLIC "-//W3C//DTD SVG 1.1//EN" "http://www.w3.org/Graphics/SVG/1.1/DTD/svg11.dtd">
<svg version="1.1" id="Layer_1" xmlns="http://www.w3.org/2000/svg" xmlns:xlink="http://www.w3.org/1999/xlink" x="0px" y="0px"
	 width="32px" height="32px" viewBox="0 0 32 32" enable-background="new 0 0 32 32" xml:space="preserve">
<polygon fill="#FFFFFF" points="74.222,5.295 63.581,-5.456 63.581,3.144 65.71,5.295 76.349,16.045 65.71,26.795 63.581,28.945 
	63.581,37.546 74.222,26.795 84.862,16.045 "/>
<rect x="-168.25" y="-87" fill="#339DE5" width="77.001" height="64"/>
<polygon opacity="0.2" points="-205.083,56.814 -206.083,55.814 -207.083,54.814 -208.083,53.814 -209.083,52.814 -210.083,51.814 
	-211.083,50.814 -212.083,49.814 -213.083,48.814 -214.083,47.814 -215.083,46.814 -216.083,45.814 -217.083,44.814 
	-218.083,43.814 -219.083,42.814 -220.079,41.818 -220.083,41.814 -221.079,40.818 -221.083,40.814 -222.079,39.818 
	-222.083,39.814 -223.079,38.818 -223.083,38.814 -224.079,37.818 -224.083,37.814 -225.079,36.818 -225.083,36.814 
	-226.079,35.818 -226.083,35.814 -227.079,34.818 -227.083,34.814 -228.079,33.818 -228.083,33.814 -229.079,32.818 
	-230.079,31.818 -231.079,30.818 -232.079,29.818 -233.079,28.818 -234.079,27.818 -235.079,26.818 -236.079,25.818 
	-237.079,24.818 -238.079,23.818 -239.079,22.818 -240.079,21.818 -241.079,20.818 -242.079,19.818 -243.079,18.818 
	-244.079,17.818 -244.079,17.818 -244.083,17.814 -244.083,17.814 -260.079,1.819 -261.079,0.819 -262.079,-0.181 -266.321,4.061 
	-265.321,5.061 -264.321,6.061 -263.321,7.061 -262.321,8.061 -257.606,12.776 -286.44,12.776 -286.44,18.775 -285.44,18.775 
	-285.44,19.775 -284.44,19.775 -284.44,20.775 -283.44,20.775 -283.44,21.775 -282.44,21.775 -282.44,22.775 -281.44,22.775 
	-281.44,23.775 -280.44,23.775 -280.44,24.775 -279.44,24.775 -279.44,25.775 -278.44,25.775 -278.44,26.775 -277.44,26.775 
	-277.44,27.775 -276.44,27.775 -276.44,28.775 -275.44,28.775 -275.44,29.775 -274.44,29.775 -274.44,30.775 -273.44,30.775 
	-273.44,31.775 -272.44,31.775 -272.44,32.775 -271.44,32.775 -271.44,33.775 -270.44,33.775 -270.44,34.775 -269.44,34.775 
	-269.44,35.775 -268.44,35.775 -268.44,36.775 -267.44,36.775 -267.44,37.775 -266.44,37.775 -266.44,38.775 -265.44,38.775 
	-265.44,39.775 -264.44,39.775 -264.44,40.775 -263.44,40.775 -263.44,41.775 -262.44,41.775 -262.44,42.775 -261.44,42.775 
	-261.44,43.775 -260.44,43.775 -260.44,44.775 -259.44,44.775 -259.44,45.775 -258.44,45.775 -258.44,46.775 -257.44,46.775 
	-257.44,47.775 -256.44,47.775 -256.44,48.775 -255.44,48.775 -255.44,49.775 -254.44,49.775 -254.44,50.775 -253.44,50.775 
	-253.44,51.775 -252.44,51.775 -252.44,52.775 -251.44,52.775 -251.44,53.775 -250.44,53.775 -250.44,54.775 -249.44,54.775 
	-249.44,55.775 -248.44,55.775 -248.44,56.775 -247.44,56.775 -247.44,57.775 -246.44,57.775 -246.44,58.775 -245.44,58.775 
	-245.44,59.775 -244.44,59.775 -244.44,60.775 -232.959,60.775 -232.243,61.491 -232.001,61.733 -231.243,62.491 -231.001,62.733 
	-230.243,63.491 -230.001,63.733 -229.243,64.491 -229.001,64.733 -228.243,65.491 -228.001,65.733 -227.243,66.491 
	-227.001,66.733 -226.243,67.491 -226.001,67.733 -225.243,68.491 -225.001,68.733 -224.243,69.491 -224.001,69.733 
	-223.001,70.733 -222.001,71.733 -221.001,72.733 -220.001,73.733 -204.083,57.814 "/>
<polygon opacity="0.2" points="-71.083,152.814 -72.083,151.814 -73.083,150.814 -74.083,149.814 -75.083,148.814 -76.083,147.814 
	-77.083,146.814 -78.083,145.814 -79.083,144.814 -80.083,143.814 -81.083,142.814 -82.083,141.814 -83.083,140.814 
	-84.083,139.814 -85.083,138.814 -86.079,137.818 -86.083,137.814 -87.079,136.818 -87.083,136.814 -88.079,135.818 
	-88.083,135.814 -89.079,134.818 -89.083,134.814 -90.079,133.818 -90.083,133.814 -91.079,132.818 -91.083,132.814 
	-92.079,131.818 -92.083,131.814 -93.079,130.818 -93.083,130.814 -94.079,129.818 -94.083,129.814 -95.079,128.818 
	-96.079,127.818 -97.079,126.818 -98.079,125.818 -99.079,124.818 -100.079,123.818 -101.079,122.818 -102.079,121.818 
	-103.079,120.818 -104.079,119.818 -105.079,118.818 -106.079,117.818 -107.079,116.818 -108.079,115.818 -109.079,114.818 
	-110.079,113.818 -110.079,113.818 -110.083,113.814 -110.083,113.814 -126.079,97.818 -127.079,96.818 -128.079,95.818 
	-132.321,100.061 -131.321,101.061 -130.321,102.061 -129.321,103.061 -128.321,104.061 -123.606,108.775 -152.44,108.775 
	-152.44,114.775 -151.44,114.775 -151.44,115.775 -150.44,115.775 -150.44,116.775 -149.44,116.775 -149.44,117.775 
	-148.44,117.775 -148.44,118.775 -147.44,118.775 -147.44,119.775 -146.44,119.775 -146.44,120.775 -145.44,120.775 
	-145.44,121.775 -144.44,121.775 -144.44,122.775 -143.44,122.775 -143.44,123.775 -142.44,123.775 -142.44,124.775 
	-141.44,124.775 -141.44,125.775 -140.44,125.775 -140.44,126.775 -139.44,126.775 -139.44,127.775 -138.44,127.775 
	-138.44,128.775 -137.44,128.775 -137.44,129.775 -136.44,129.775 -136.44,130.775 -135.44,130.775 -135.44,131.775 
	-134.44,131.775 -134.44,132.775 -133.44,132.775 -133.44,133.775 -132.44,133.775 -132.44,134.775 -131.44,134.775 
	-131.44,135.775 -130.44,135.775 -130.44,136.775 -129.44,136.775 -129.44,137.775 -128.44,137.775 -128.44,138.775 
	-127.44,138.775 -127.44,139.775 -126.44,139.775 -126.44,140.775 -125.44,140.775 -125.44,141.775 -124.44,141.775 
	-124.44,142.775 -123.44,142.775 -123.44,143.775 -122.44,143.775 -122.44,144.775 -121.44,144.775 -121.44,145.775 
	-120.44,145.775 -120.44,146.775 -119.44,146.775 -119.44,147.775 -118.44,147.775 -118.44,148.775 -117.44,148.775 
	-117.44,149.775 -116.44,149.775 -116.44,150.775 -115.44,150.775 -115.44,151.775 -114.44,151.775 -114.44,152.775 
	-113.44,152.775 -113.44,153.775 -112.44,153.775 -112.44,154.775 -111.44,154.775 -111.44,155.775 -110.44,155.775 
	-110.44,156.775 -98.959,156.775 -98.243,157.491 -98.001,157.733 -97.243,158.491 -97.001,158.733 -96.243,159.491 
	-96.001,159.733 -95.243,160.491 -95.001,160.733 -94.243,161.491 -94.001,161.733 -93.243,162.491 -93.001,162.733 
	-92.243,163.491 -92.001,163.733 -91.243,164.491 -91.001,164.733 -90.243,165.491 -90.001,165.733 -89.001,166.733 
	-88.001,167.733 -87.001,168.733 -86.001,169.733 -70.083,153.814 "/>
<polygon fill="#FFFFFF" points="-262.079,-0.181 -266.321,4.061 -257.606,12.776 -286.44,12.776 -286.44,18.775 -257.528,18.775 
	-266.243,27.491 -262.001,31.733 -246.083,15.815 "/>
<polygon fill="#339DE5" points="-128.079,95.818 -132.321,100.061 -123.606,108.775 -152.44,108.775 -152.44,114.775 
	-123.528,114.775 -132.243,123.491 -128.001,127.733 -112.083,111.814 "/>
<polygon fill="#FFFFFF" points="-132.587,29.498 -134.515,27.199 -121.293,16.116 -134.515,5.032 -132.587,2.733 -116.623,16.116 
	"/>
<line fill="none" stroke="#FFFFFF" stroke-width="3" stroke-linecap="square" stroke-miterlimit="10" x1="-144.958" y1="16.116" x2="-120.208" y2="16.116"/>
<polyline fill="none" stroke="#FFFFFF" stroke-width="3" stroke-linecap="square" stroke-miterlimit="10" points="-132.401,-29.466 
	-118.958,-18.197 -132.401,-6.928 "/>
<line fill="none" stroke="#FFFFFF" stroke-width="3" stroke-linecap="square" stroke-miterlimit="10" x1="-144.958" y1="-18.197" x2="-120.208" y2="-18.197"/>
<line fill="none" stroke="#FFFFFF" stroke-width="3" stroke-linecap="square" stroke-miterlimit="10" x1="-92.416" y1="7.167" x2="-74.458" y2="25.125"/>
<line fill="none" stroke="#FFFFFF" stroke-width="3" stroke-linecap="square" stroke-miterlimit="10" x1="-92.416" y1="25.125" x2="-74.458" y2="7.167"/>
<g>
	<g>
		<rect x="-48.958" y="2.25" fill="#FFFFFF" width="7.5" height="7.5"/>
		<rect x="-38.958" y="2.25" fill="#FFFFFF" width="7.5" height="7.5"/>
		<rect x="-29.021" y="2.25" fill="#FFFFFF" width="7.5" height="7.5"/>
	</g>
	<g>
		<rect x="-48.958" y="12.406" fill="#FFFFFF" width="7.5" height="7.5"/>
		<rect x="-38.958" y="12.406" fill="#FFFFFF" width="7.5" height="7.5"/>
		<rect x="-29.021" y="12.406" fill="#FFFFFF" width="7.5" height="7.5"/>
	</g>
	<g>
		<rect x="-48.958" y="22.563" fill="#FFFFFF" width="7.5" height="7.5"/>
		<rect x="-38.958" y="22.563" fill="#FFFFFF" width="7.5" height="7.5"/>
		<rect x="-29.021" y="22.563" fill="#FFFFFF" width="7.5" height="7.5"/>
	</g>
</g>
<line fill="none" stroke="#FFFFFF" stroke-width="3" stroke-linecap="square" stroke-miterlimit="10" x1="6.042" y1="6.828" x2="26.042" y2="6.828"/>
<line fill="none" stroke="#FFFFFF" stroke-width="3" stroke-linecap="square" stroke-miterlimit="10" x1="6.042" y1="15.828" x2="26.042" y2="15.828"/>
<line fill="none" stroke="#FFFFFF" stroke-width="3" stroke-linecap="square" stroke-miterlimit="10" x1="6.042" y1="24.828" x2="26.042" y2="24.828"/>
</svg>
