<?xml version="1.0" encoding="utf-8"?>
<!-- Generator: Adobe Illustrator 15.0.0, SVG Export Plug-In . SVG Version: 6.00 Build 0)  -->
<!DOCTYPE svg PUBLIC "-//W3C//DTD SVG 1.1//EN" "http://www.w3.org/Graphics/SVG/1.1/DTD/svg11.dtd">
<svg version="1.1" id="Layer_1" xmlns="http://www.w3.org/2000/svg" xmlns:xlink="http://www.w3.org/1999/xlink" x="0px" y="0px"
	 width="16px" height="16px" viewBox="0 0 16 16" enable-background="new 0 0 16 16" xml:space="preserve">
<polygon opacity="0.2" points="-213.083,48.814 -214.083,47.814 -215.083,46.814 -216.083,45.814 -217.083,44.814 -218.083,43.814 
	-219.083,42.814 -220.083,41.814 -221.083,40.814 -222.083,39.814 -223.083,38.814 -224.083,37.814 -225.083,36.814 
	-226.083,35.814 -227.083,34.814 -228.079,33.818 -228.083,33.814 -229.079,32.818 -229.083,32.814 -230.079,31.818 
	-230.083,31.814 -231.079,30.818 -231.083,30.814 -232.079,29.818 -232.083,29.814 -233.079,28.818 -233.083,28.814 
	-234.079,27.818 -234.083,27.814 -235.079,26.818 -235.083,26.814 -236.079,25.818 -236.083,25.814 -237.079,24.818 
	-238.079,23.818 -239.079,22.818 -240.079,21.818 -241.079,20.818 -242.079,19.818 -243.079,18.818 -244.079,17.818 
	-245.079,16.818 -246.079,15.818 -247.079,14.818 -248.079,13.818 -249.079,12.818 -250.079,11.818 -251.079,10.818 -252.079,9.818 
	-252.079,9.818 -252.083,9.814 -252.083,9.814 -268.079,-6.181 -269.079,-7.181 -270.079,-8.181 -274.321,-3.939 -273.321,-2.939 
	-272.321,-1.939 -271.321,-0.939 -270.321,0.061 -265.606,4.776 -294.44,4.776 -294.44,10.775 -293.44,10.775 -293.44,11.775 
	-292.44,11.775 -292.44,12.775 -291.44,12.775 -291.44,13.775 -290.44,13.775 -290.44,14.775 -289.44,14.775 -289.44,15.775 
	-288.44,15.775 -288.44,16.775 -287.44,16.775 -287.44,17.775 -286.44,17.775 -286.44,18.775 -285.44,18.775 -285.44,19.775 
	-284.44,19.775 -284.44,20.775 -283.44,20.775 -283.44,21.775 -282.44,21.775 -282.44,22.775 -281.44,22.775 -281.44,23.775 
	-280.44,23.775 -280.44,24.775 -279.44,24.775 -279.44,25.775 -278.44,25.775 -278.44,26.775 -277.44,26.775 -277.44,27.775 
	-276.44,27.775 -276.44,28.775 -275.44,28.775 -275.44,29.775 -274.44,29.775 -274.44,30.775 -273.44,30.775 -273.44,31.775 
	-272.44,31.775 -272.44,32.775 -271.44,32.775 -271.44,33.775 -270.44,33.775 -270.44,34.775 -269.44,34.775 -269.44,35.775 
	-268.44,35.775 -268.44,36.775 -267.44,36.775 -267.44,37.775 -266.44,37.775 -266.44,38.775 -265.44,38.775 -265.44,39.775 
	-264.44,39.775 -264.44,40.775 -263.44,40.775 -263.44,41.775 -262.44,41.775 -262.44,42.775 -261.44,42.775 -261.44,43.775 
	-260.44,43.775 -260.44,44.775 -259.44,44.775 -259.44,45.775 -258.44,45.775 -258.44,46.775 -257.44,46.775 -257.44,47.775 
	-256.44,47.775 -256.44,48.775 -255.44,48.775 -255.44,49.775 -254.44,49.775 -254.44,50.775 -253.44,50.775 -253.44,51.775 
	-252.44,51.775 -252.44,52.775 -240.959,52.775 -240.243,53.491 -240.001,53.733 -239.243,54.491 -239.001,54.733 -238.243,55.491 
	-238.001,55.733 -237.243,56.491 -237.001,56.733 -236.243,57.491 -236.001,57.733 -235.243,58.491 -235.001,58.733 
	-234.243,59.491 -234.001,59.733 -233.243,60.491 -233.001,60.733 -232.243,61.491 -232.001,61.733 -231.001,62.733 
	-230.001,63.733 -229.001,64.733 -228.001,65.733 -212.083,49.814 "/>
<polygon opacity="0.2" points="-79.083,144.814 -80.083,143.814 -81.083,142.814 -82.083,141.814 -83.083,140.814 -84.083,139.814 
	-85.083,138.814 -86.083,137.814 -87.083,136.814 -88.083,135.814 -89.083,134.814 -90.083,133.814 -91.083,132.814 
	-92.083,131.814 -93.083,130.814 -94.079,129.818 -94.083,129.814 -95.079,128.818 -95.083,128.814 -96.079,127.818 
	-96.083,127.814 -97.079,126.818 -97.083,126.814 -98.079,125.818 -98.083,125.814 -99.079,124.818 -99.083,124.814 
	-100.079,123.818 -100.083,123.814 -101.079,122.818 -101.083,122.814 -102.079,121.818 -102.083,121.814 -103.079,120.818 
	-104.079,119.818 -105.079,118.818 -106.079,117.818 -107.079,116.818 -108.079,115.818 -109.079,114.818 -110.079,113.818 
	-111.079,112.818 -112.079,111.818 -113.079,110.818 -114.079,109.818 -115.079,108.818 -116.079,107.818 -117.079,106.818 
	-118.079,105.818 -118.079,105.818 -118.083,105.814 -118.083,105.814 -134.079,89.818 -135.079,88.818 -136.079,87.818 
	-140.321,92.061 -139.321,93.061 -138.321,94.061 -137.321,95.061 -136.321,96.061 -131.606,100.775 -160.44,100.775 
	-160.44,106.775 -159.44,106.775 -159.44,107.775 -158.44,107.775 -158.44,108.775 -157.44,108.775 -157.44,109.775 
	-156.44,109.775 -156.44,110.775 -155.44,110.775 -155.44,111.775 -154.44,111.775 -154.44,112.775 -153.44,112.775 
	-153.44,113.775 -152.44,113.775 -152.44,114.775 -151.44,114.775 -151.44,115.775 -150.44,115.775 -150.44,116.775 
	-149.44,116.775 -149.44,117.775 -148.44,117.775 -148.44,118.775 -147.44,118.775 -147.44,119.775 -146.44,119.775 
	-146.44,120.775 -145.44,120.775 -145.44,121.775 -144.44,121.775 -144.44,122.775 -143.44,122.775 -143.44,123.775 
	-142.44,123.775 -142.44,124.775 -141.44,124.775 -141.44,125.775 -140.44,125.775 -140.44,126.775 -139.44,126.775 
	-139.44,127.775 -138.44,127.775 -138.44,128.775 -137.44,128.775 -137.44,129.775 -136.44,129.775 -136.44,130.775 
	-135.44,130.775 -135.44,131.775 -134.44,131.775 -134.44,132.775 -133.44,132.775 -133.44,133.775 -132.44,133.775 
	-132.44,134.775 -131.44,134.775 -131.44,135.775 -130.44,135.775 -130.44,136.775 -129.44,136.775 -129.44,137.775 
	-128.44,137.775 -128.44,138.775 -127.44,138.775 -127.44,139.775 -126.44,139.775 -126.44,140.775 -125.44,140.775 
	-125.44,141.775 -124.44,141.775 -124.44,142.775 -123.44,142.775 -123.44,143.775 -122.44,143.775 -122.44,144.775 
	-121.44,144.775 -121.44,145.775 -120.44,145.775 -120.44,146.775 -119.44,146.775 -119.44,147.775 -118.44,147.775 
	-118.44,148.775 -106.959,148.775 -106.243,149.491 -106.001,149.733 -105.243,150.491 -105.001,150.733 -104.243,151.491 
	-104.001,151.733 -103.243,152.491 -103.001,152.733 -102.243,153.491 -102.001,153.733 -101.243,154.491 -101.001,154.733 
	-100.243,155.491 -100.001,155.733 -99.243,156.491 -99.001,156.733 -98.243,157.491 -98.001,157.733 -97.001,158.733 
	-96.001,159.733 -95.001,160.733 -94.001,161.733 -78.083,145.814 "/>
<polygon fill="#FFFFFF" points="-270.079,-8.181 -274.321,-3.939 -265.606,4.776 -294.44,4.776 -294.44,10.775 -265.528,10.775 
	-274.243,19.491 -270.001,23.733 -254.083,7.815 "/>
<polygon fill="#339DE5" points="-136.079,87.818 -140.321,92.061 -131.606,100.775 -160.44,100.775 -160.44,106.775 
	-131.528,106.775 -140.243,115.491 -136.001,119.733 -120.083,103.814 "/>
<line fill="none" stroke="#FFFFFF" stroke-width="2" stroke-linejoin="bevel" stroke-miterlimit="10" x1="0.042" y1="1" x2="16.042" y2="1"/>
<line fill="none" stroke="#FFFFFF" stroke-width="2" stroke-linejoin="bevel" stroke-miterlimit="10" x1="0.042" y1="8" x2="16.042" y2="8"/>
<line fill="none" stroke="#FFFFFF" stroke-width="2" stroke-linejoin="bevel" stroke-miterlimit="10" x1="0.042" y1="15" x2="16.042" y2="15"/>
</svg>
