<?xml version="1.0" encoding="utf-8"?>
<!-- Generator: Adobe Illustrator 15.0.0, SVG Export Plug-In . SVG Version: 6.00 Build 0)  -->
<!DOCTYPE svg PUBLIC "-//W3C//DTD SVG 1.1//EN" "http://www.w3.org/Graphics/SVG/1.1/DTD/svg11.dtd">
<svg version="1.1" id="Layer_1" xmlns="http://www.w3.org/2000/svg" xmlns:xlink="http://www.w3.org/1999/xlink" x="0px" y="0px"
	 width="32px" height="32px" viewBox="0 0 32 32" enable-background="new 0 0 32 32" xml:space="preserve">
<polygon fill="#FFFFFF" points="221.93,5.295 211.289,-5.456 211.289,3.144 213.418,5.295 224.057,16.045 213.418,26.795 
	211.289,28.945 211.289,37.546 221.93,26.795 232.57,16.045 "/>
<rect x="-20.542" y="-87" fill="#339DE5" width="77.001" height="64"/>
<polygon opacity="0.2" points="-57.375,56.814 -58.375,55.814 -59.375,54.814 -60.375,53.814 -61.375,52.814 -62.375,51.814 
	-63.375,50.814 -64.375,49.814 -65.375,48.814 -66.375,47.814 -67.375,46.814 -68.375,45.814 -69.375,44.814 -70.375,43.814 
	-71.375,42.814 -72.371,41.818 -72.375,41.814 -73.371,40.818 -73.375,40.814 -74.371,39.818 -74.375,39.814 -75.371,38.818 
	-75.375,38.814 -76.371,37.818 -76.375,37.814 -77.371,36.818 -77.375,36.814 -78.371,35.818 -78.375,35.814 -79.371,34.818 
	-79.375,34.814 -80.371,33.818 -80.375,33.814 -81.371,32.818 -82.371,31.818 -83.371,30.818 -84.371,29.818 -85.371,28.818 
	-86.371,27.818 -87.371,26.818 -88.371,25.818 -89.371,24.818 -90.371,23.818 -91.371,22.818 -92.371,21.818 -93.371,20.818 
	-94.371,19.818 -95.371,18.818 -96.371,17.818 -96.371,17.818 -96.375,17.814 -96.375,17.814 -112.371,1.819 -113.371,0.819 
	-114.371,-0.181 -118.613,4.061 -117.613,5.061 -116.613,6.061 -115.613,7.061 -114.613,8.061 -109.898,12.776 -138.732,12.776 
	-138.732,18.775 -137.732,18.775 -137.732,19.775 -136.732,19.775 -136.732,20.775 -135.732,20.775 -135.732,21.775 
	-134.732,21.775 -134.732,22.775 -133.732,22.775 -133.732,23.775 -132.732,23.775 -132.732,24.775 -131.732,24.775 
	-131.732,25.775 -130.732,25.775 -130.732,26.775 -129.732,26.775 -129.732,27.775 -128.732,27.775 -128.732,28.775 
	-127.732,28.775 -127.732,29.775 -126.732,29.775 -126.732,30.775 -125.732,30.775 -125.732,31.775 -124.732,31.775 
	-124.732,32.775 -123.732,32.775 -123.732,33.775 -122.732,33.775 -122.732,34.775 -121.732,34.775 -121.732,35.775 
	-120.732,35.775 -120.732,36.775 -119.732,36.775 -119.732,37.775 -118.732,37.775 -118.732,38.775 -117.732,38.775 
	-117.732,39.775 -116.732,39.775 -116.732,40.775 -115.732,40.775 -115.732,41.775 -114.732,41.775 -114.732,42.775 
	-113.732,42.775 -113.732,43.775 -112.732,43.775 -112.732,44.775 -111.732,44.775 -111.732,45.775 -110.732,45.775 
	-110.732,46.775 -109.732,46.775 -109.732,47.775 -108.732,47.775 -108.732,48.775 -107.732,48.775 -107.732,49.775 
	-106.732,49.775 -106.732,50.775 -105.732,50.775 -105.732,51.775 -104.732,51.775 -104.732,52.775 -103.732,52.775 
	-103.732,53.775 -102.732,53.775 -102.732,54.775 -101.732,54.775 -101.732,55.775 -100.732,55.775 -100.732,56.775 -99.732,56.775 
	-99.732,57.775 -98.732,57.775 -98.732,58.775 -97.732,58.775 -97.732,59.775 -96.732,59.775 -96.732,60.775 -85.251,60.775 
	-84.535,61.491 -84.293,61.733 -83.535,62.491 -83.293,62.733 -82.535,63.491 -82.293,63.733 -81.535,64.491 -81.293,64.733 
	-80.535,65.491 -80.293,65.733 -79.535,66.491 -79.293,66.733 -78.535,67.491 -78.293,67.733 -77.535,68.491 -77.293,68.733 
	-76.535,69.491 -76.293,69.733 -75.293,70.733 -74.293,71.733 -73.293,72.733 -72.293,73.733 -56.375,57.814 "/>
<polygon opacity="0.2" points="76.625,152.814 75.625,151.814 74.625,150.814 73.625,149.814 72.625,148.814 71.625,147.814 
	70.625,146.814 69.625,145.814 68.625,144.814 67.625,143.814 66.625,142.814 65.625,141.814 64.625,140.814 63.625,139.814 
	62.625,138.814 61.629,137.818 61.625,137.814 60.629,136.818 60.625,136.814 59.629,135.818 59.625,135.814 58.629,134.818 
	58.625,134.814 57.629,133.818 57.625,133.814 56.629,132.818 56.625,132.814 55.629,131.818 55.625,131.814 54.629,130.818 
	54.625,130.814 53.629,129.818 53.625,129.814 52.629,128.818 51.629,127.818 50.629,126.818 49.629,125.818 48.629,124.818 
	47.629,123.818 46.629,122.818 45.629,121.818 44.629,120.818 43.629,119.818 42.629,118.818 41.629,117.818 40.629,116.818 
	39.629,115.818 38.629,114.818 37.629,113.818 37.629,113.818 37.625,113.814 37.625,113.814 21.629,97.818 20.629,96.818 
	19.629,95.818 15.387,100.061 16.387,101.061 17.387,102.061 18.387,103.061 19.387,104.061 24.102,108.775 -4.732,108.775 
	-4.732,114.775 -3.732,114.775 -3.732,115.775 -2.732,115.775 -2.732,116.775 -1.732,116.775 -1.732,117.775 -0.732,117.775 
	-0.732,118.775 0.268,118.775 0.268,119.775 1.268,119.775 1.268,120.775 2.268,120.775 2.268,121.775 3.268,121.775 3.268,122.775 
	4.268,122.775 4.268,123.775 5.268,123.775 5.268,124.775 6.268,124.775 6.268,125.775 7.268,125.775 7.268,126.775 8.268,126.775 
	8.268,127.775 9.268,127.775 9.268,128.775 10.268,128.775 10.268,129.775 11.268,129.775 11.268,130.775 12.268,130.775 
	12.268,131.775 13.268,131.775 13.268,132.775 14.268,132.775 14.268,133.775 15.268,133.775 15.268,134.775 16.268,134.775 
	16.268,135.775 17.268,135.775 17.268,136.775 18.268,136.775 18.268,137.775 19.268,137.775 19.268,138.775 20.268,138.775 
	20.268,139.775 21.268,139.775 21.268,140.775 22.268,140.775 22.268,141.775 23.268,141.775 23.268,142.775 24.268,142.775 
	24.268,143.775 25.268,143.775 25.268,144.775 26.268,144.775 26.268,145.775 27.268,145.775 27.268,146.775 28.268,146.775 
	28.268,147.775 29.268,147.775 29.268,148.775 30.268,148.775 30.268,149.775 31.268,149.775 31.268,150.775 32.268,150.775 
	32.268,151.775 33.268,151.775 33.268,152.775 34.268,152.775 34.268,153.775 35.268,153.775 35.268,154.775 36.268,154.775 
	36.268,155.775 37.268,155.775 37.268,156.775 48.749,156.775 49.465,157.491 49.707,157.733 50.465,158.491 50.707,158.733 
	51.465,159.491 51.707,159.733 52.465,160.491 52.707,160.733 53.465,161.491 53.707,161.733 54.465,162.491 54.707,162.733 
	55.465,163.491 55.707,163.733 56.465,164.491 56.707,164.733 57.465,165.491 57.707,165.733 58.707,166.733 59.707,167.733 
	60.707,168.733 61.707,169.733 77.625,153.814 "/>
<polygon fill="#FFFFFF" points="-114.371,-0.181 -118.613,4.061 -109.898,12.776 -138.732,12.776 -138.732,18.775 -109.82,18.775 
	-118.535,27.491 -114.293,31.733 -98.375,15.815 "/>
<polygon fill="#339DE5" points="19.629,95.818 15.387,100.061 24.102,108.775 -4.732,108.775 -4.732,114.775 24.18,114.775 
	15.465,123.491 19.707,127.733 35.625,111.814 "/>
<polygon fill="#FFFFFF" points="15.121,29.498 13.193,27.199 26.415,16.116 13.193,5.032 15.121,2.733 31.085,16.116 "/>
<line fill="none" stroke="#FFFFFF" stroke-width="3" stroke-linecap="square" stroke-miterlimit="10" x1="2.75" y1="16.116" x2="27.5" y2="16.116"/>
<polyline fill="none" stroke="#FFFFFF" stroke-width="3" stroke-linecap="square" stroke-miterlimit="10" points="15.307,-29.466 
	28.75,-18.197 15.307,-6.928 "/>
<line fill="none" stroke="#FFFFFF" stroke-width="3" stroke-linecap="square" stroke-miterlimit="10" x1="2.75" y1="-18.197" x2="27.5" y2="-18.197"/>
<line fill="none" stroke="#FFFFFF" stroke-width="3" stroke-linecap="square" stroke-miterlimit="10" x1="55.292" y1="7.167" x2="73.25" y2="25.125"/>
<line fill="none" stroke="#FFFFFF" stroke-width="3" stroke-linecap="square" stroke-miterlimit="10" x1="55.292" y1="25.125" x2="73.25" y2="7.167"/>
<g>
	<g>
		<rect x="98.75" y="2.25" fill="#FFFFFF" width="7.5" height="7.5"/>
		<rect x="108.75" y="2.25" fill="#FFFFFF" width="7.5" height="7.5"/>
		<rect x="118.688" y="2.25" fill="#FFFFFF" width="7.5" height="7.5"/>
	</g>
	<g>
		<rect x="98.75" y="12.406" fill="#FFFFFF" width="7.5" height="7.5"/>
		<rect x="108.75" y="12.406" fill="#FFFFFF" width="7.5" height="7.5"/>
		<rect x="118.688" y="12.406" fill="#FFFFFF" width="7.5" height="7.5"/>
	</g>
	<g>
		<rect x="98.75" y="22.563" fill="#FFFFFF" width="7.5" height="7.5"/>
		<rect x="108.75" y="22.563" fill="#FFFFFF" width="7.5" height="7.5"/>
		<rect x="118.688" y="22.563" fill="#FFFFFF" width="7.5" height="7.5"/>
	</g>
</g>
<line fill="none" stroke="#FFFFFF" stroke-width="3" stroke-linecap="square" stroke-miterlimit="10" x1="153.75" y1="6.828" x2="173.75" y2="6.828"/>
<line fill="none" stroke="#FFFFFF" stroke-width="3" stroke-linecap="square" stroke-miterlimit="10" x1="153.75" y1="15.828" x2="173.75" y2="15.828"/>
<line fill="none" stroke="#FFFFFF" stroke-width="3" stroke-linecap="square" stroke-miterlimit="10" x1="153.75" y1="24.828" x2="173.75" y2="24.828"/>
</svg>
