<?xml version="1.0" encoding="utf-8"?>
<!-- Generator: Adobe Illustrator 15.0.0, SVG Export Plug-In . SVG Version: 6.00 Build 0)  -->
<!DOCTYPE svg PUBLIC "-//W3C//DTD SVG 1.1//EN" "http://www.w3.org/Graphics/SVG/1.1/DTD/svg11.dtd">
<svg version="1.1" id="Layer_1" xmlns="http://www.w3.org/2000/svg" xmlns:xlink="http://www.w3.org/1999/xlink" x="0px" y="0px"
	 width="32px" height="32px" viewBox="0 0 32 32" enable-background="new 0 0 32 32" xml:space="preserve">
<polygon fill="#FFFFFF" points="125.347,5.295 114.706,-5.456 114.706,3.144 116.835,5.295 127.474,16.045 116.835,26.795 
	114.706,28.945 114.706,37.546 125.347,26.795 135.987,16.045 "/>
<rect x="-117.125" y="-87" fill="#339DE5" width="77.001" height="64"/>
<polygon opacity="0.2" points="-153.958,56.814 -154.958,55.814 -155.958,54.814 -156.958,53.814 -157.958,52.814 -158.958,51.814 
	-159.958,50.814 -160.958,49.814 -161.958,48.814 -162.958,47.814 -163.958,46.814 -164.958,45.814 -165.958,44.814 
	-166.958,43.814 -167.958,42.814 -168.954,41.818 -168.958,41.814 -169.954,40.818 -169.958,40.814 -170.954,39.818 
	-170.958,39.814 -171.954,38.818 -171.958,38.814 -172.954,37.818 -172.958,37.814 -173.954,36.818 -173.958,36.814 
	-174.954,35.818 -174.958,35.814 -175.954,34.818 -175.958,34.814 -176.954,33.818 -176.958,33.814 -177.954,32.818 
	-178.954,31.818 -179.954,30.818 -180.954,29.818 -181.954,28.818 -182.954,27.818 -183.954,26.818 -184.954,25.818 
	-185.954,24.818 -186.954,23.818 -187.954,22.818 -188.954,21.818 -189.954,20.818 -190.954,19.818 -191.954,18.818 
	-192.954,17.818 -192.954,17.818 -192.958,17.814 -192.958,17.814 -208.954,1.819 -209.954,0.819 -210.954,-0.181 -215.196,4.061 
	-214.196,5.061 -213.196,6.061 -212.196,7.061 -211.196,8.061 -206.481,12.776 -235.315,12.776 -235.315,18.775 -234.315,18.775 
	-234.315,19.775 -233.315,19.775 -233.315,20.775 -232.315,20.775 -232.315,21.775 -231.315,21.775 -231.315,22.775 
	-230.315,22.775 -230.315,23.775 -229.315,23.775 -229.315,24.775 -228.315,24.775 -228.315,25.775 -227.315,25.775 
	-227.315,26.775 -226.315,26.775 -226.315,27.775 -225.315,27.775 -225.315,28.775 -224.315,28.775 -224.315,29.775 
	-223.315,29.775 -223.315,30.775 -222.315,30.775 -222.315,31.775 -221.315,31.775 -221.315,32.775 -220.315,32.775 
	-220.315,33.775 -219.315,33.775 -219.315,34.775 -218.315,34.775 -218.315,35.775 -217.315,35.775 -217.315,36.775 
	-216.315,36.775 -216.315,37.775 -215.315,37.775 -215.315,38.775 -214.315,38.775 -214.315,39.775 -213.315,39.775 
	-213.315,40.775 -212.315,40.775 -212.315,41.775 -211.315,41.775 -211.315,42.775 -210.315,42.775 -210.315,43.775 
	-209.315,43.775 -209.315,44.775 -208.315,44.775 -208.315,45.775 -207.315,45.775 -207.315,46.775 -206.315,46.775 
	-206.315,47.775 -205.315,47.775 -205.315,48.775 -204.315,48.775 -204.315,49.775 -203.315,49.775 -203.315,50.775 
	-202.315,50.775 -202.315,51.775 -201.315,51.775 -201.315,52.775 -200.315,52.775 -200.315,53.775 -199.315,53.775 
	-199.315,54.775 -198.315,54.775 -198.315,55.775 -197.315,55.775 -197.315,56.775 -196.315,56.775 -196.315,57.775 
	-195.315,57.775 -195.315,58.775 -194.315,58.775 -194.315,59.775 -193.315,59.775 -193.315,60.775 -181.834,60.775 
	-181.118,61.491 -180.876,61.733 -180.118,62.491 -179.876,62.733 -179.118,63.491 -178.876,63.733 -178.118,64.491 
	-177.876,64.733 -177.118,65.491 -176.876,65.733 -176.118,66.491 -175.876,66.733 -175.118,67.491 -174.876,67.733 
	-174.118,68.491 -173.876,68.733 -173.118,69.491 -172.876,69.733 -171.876,70.733 -170.876,71.733 -169.876,72.733 
	-168.876,73.733 -152.958,57.814 "/>
<polygon opacity="0.2" points="-19.958,152.814 -20.958,151.814 -21.958,150.814 -22.958,149.814 -23.958,148.814 -24.958,147.814 
	-25.958,146.814 -26.958,145.814 -27.958,144.814 -28.958,143.814 -29.958,142.814 -30.958,141.814 -31.958,140.814 
	-32.958,139.814 -33.958,138.814 -34.954,137.818 -34.958,137.814 -35.954,136.818 -35.958,136.814 -36.954,135.818 
	-36.958,135.814 -37.954,134.818 -37.958,134.814 -38.954,133.818 -38.958,133.814 -39.954,132.818 -39.958,132.814 
	-40.954,131.818 -40.958,131.814 -41.954,130.818 -41.958,130.814 -42.954,129.818 -42.958,129.814 -43.954,128.818 
	-44.954,127.818 -45.954,126.818 -46.954,125.818 -47.954,124.818 -48.954,123.818 -49.954,122.818 -50.954,121.818 
	-51.954,120.818 -52.954,119.818 -53.954,118.818 -54.954,117.818 -55.954,116.818 -56.954,115.818 -57.954,114.818 
	-58.954,113.818 -58.954,113.818 -58.958,113.814 -58.958,113.814 -74.954,97.818 -75.954,96.818 -76.954,95.818 -81.196,100.061 
	-80.196,101.061 -79.196,102.061 -78.196,103.061 -77.196,104.061 -72.481,108.775 -101.315,108.775 -101.315,114.775 
	-100.315,114.775 -100.315,115.775 -99.315,115.775 -99.315,116.775 -98.315,116.775 -98.315,117.775 -97.315,117.775 
	-97.315,118.775 -96.315,118.775 -96.315,119.775 -95.315,119.775 -95.315,120.775 -94.315,120.775 -94.315,121.775 
	-93.315,121.775 -93.315,122.775 -92.315,122.775 -92.315,123.775 -91.315,123.775 -91.315,124.775 -90.315,124.775 
	-90.315,125.775 -89.315,125.775 -89.315,126.775 -88.315,126.775 -88.315,127.775 -87.315,127.775 -87.315,128.775 
	-86.315,128.775 -86.315,129.775 -85.315,129.775 -85.315,130.775 -84.315,130.775 -84.315,131.775 -83.315,131.775 
	-83.315,132.775 -82.315,132.775 -82.315,133.775 -81.315,133.775 -81.315,134.775 -80.315,134.775 -80.315,135.775 
	-79.315,135.775 -79.315,136.775 -78.315,136.775 -78.315,137.775 -77.315,137.775 -77.315,138.775 -76.315,138.775 
	-76.315,139.775 -75.315,139.775 -75.315,140.775 -74.315,140.775 -74.315,141.775 -73.315,141.775 -73.315,142.775 
	-72.315,142.775 -72.315,143.775 -71.315,143.775 -71.315,144.775 -70.315,144.775 -70.315,145.775 -69.315,145.775 
	-69.315,146.775 -68.315,146.775 -68.315,147.775 -67.315,147.775 -67.315,148.775 -66.315,148.775 -66.315,149.775 
	-65.315,149.775 -65.315,150.775 -64.315,150.775 -64.315,151.775 -63.315,151.775 -63.315,152.775 -62.315,152.775 
	-62.315,153.775 -61.315,153.775 -61.315,154.775 -60.315,154.775 -60.315,155.775 -59.315,155.775 -59.315,156.775 
	-47.834,156.775 -47.118,157.491 -46.876,157.733 -46.118,158.491 -45.876,158.733 -45.118,159.491 -44.876,159.733 
	-44.118,160.491 -43.876,160.733 -43.118,161.491 -42.876,161.733 -42.118,162.491 -41.876,162.733 -41.118,163.491 
	-40.876,163.733 -40.118,164.491 -39.876,164.733 -39.118,165.491 -38.876,165.733 -37.876,166.733 -36.876,167.733 
	-35.876,168.733 -34.876,169.733 -18.958,153.814 "/>
<polygon fill="#FFFFFF" points="-210.954,-0.181 -215.196,4.061 -206.481,12.776 -235.315,12.776 -235.315,18.775 -206.403,18.775 
	-215.118,27.491 -210.876,31.733 -194.958,15.815 "/>
<polygon fill="#339DE5" points="-76.954,95.818 -81.196,100.061 -72.481,108.775 -101.315,108.775 -101.315,114.775 
	-72.403,114.775 -81.118,123.491 -76.876,127.733 -60.958,111.814 "/>
<polygon fill="#FFFFFF" points="-81.462,29.498 -83.39,27.199 -70.168,16.116 -83.39,5.032 -81.462,2.733 -65.498,16.116 "/>
<line fill="none" stroke="#FFFFFF" stroke-width="3" stroke-linecap="square" stroke-miterlimit="10" x1="-93.833" y1="16.116" x2="-69.083" y2="16.116"/>
<polyline fill="none" stroke="#FFFFFF" stroke-width="3" stroke-linecap="square" stroke-miterlimit="10" points="-81.276,-29.466 
	-67.833,-18.197 -81.276,-6.928 "/>
<line fill="none" stroke="#FFFFFF" stroke-width="3" stroke-linecap="square" stroke-miterlimit="10" x1="-93.833" y1="-18.197" x2="-69.083" y2="-18.197"/>
<line fill="none" stroke="#FFFFFF" stroke-width="3" stroke-linecap="square" stroke-miterlimit="10" x1="-41.291" y1="7.167" x2="-23.333" y2="25.125"/>
<line fill="none" stroke="#FFFFFF" stroke-width="3" stroke-linecap="square" stroke-miterlimit="10" x1="-41.291" y1="25.125" x2="-23.333" y2="7.167"/>
<g>
	<g>
		<rect x="2.167" y="2.25" fill="#FFFFFF" width="7.5" height="7.5"/>
		<rect x="12.167" y="2.25" fill="#FFFFFF" width="7.5" height="7.5"/>
		<rect x="22.104" y="2.25" fill="#FFFFFF" width="7.5" height="7.5"/>
	</g>
	<g>
		<rect x="2.167" y="12.406" fill="#FFFFFF" width="7.5" height="7.5"/>
		<rect x="12.167" y="12.406" fill="#FFFFFF" width="7.5" height="7.5"/>
		<rect x="22.104" y="12.406" fill="#FFFFFF" width="7.5" height="7.5"/>
	</g>
	<g>
		<rect x="2.167" y="22.563" fill="#FFFFFF" width="7.5" height="7.5"/>
		<rect x="12.167" y="22.563" fill="#FFFFFF" width="7.5" height="7.5"/>
		<rect x="22.104" y="22.563" fill="#FFFFFF" width="7.5" height="7.5"/>
	</g>
</g>
<line fill="none" stroke="#FFFFFF" stroke-width="3" stroke-linecap="square" stroke-miterlimit="10" x1="57.167" y1="6.828" x2="77.167" y2="6.828"/>
<line fill="none" stroke="#FFFFFF" stroke-width="3" stroke-linecap="square" stroke-miterlimit="10" x1="57.167" y1="15.828" x2="77.167" y2="15.828"/>
<line fill="none" stroke="#FFFFFF" stroke-width="3" stroke-linecap="square" stroke-miterlimit="10" x1="57.167" y1="24.828" x2="77.167" y2="24.828"/>
</svg>
