<?xml version="1.0" standalone="no"?>
<!DOCTYPE svg PUBLIC "-//W3C//DTD SVG 20010904//EN"
 "http://www.w3.org/TR/2001/REC-SVG-20010904/DTD/svg10.dtd">
<svg version="1.0" xmlns="http://www.w3.org/2000/svg"
 width="260.000000pt" height="260.000000pt" viewBox="0 0 260.000000 260.000000"
 preserveAspectRatio="xMidYMid meet">
<metadata>
Created by potrace 1.11, written by Peter Selinger 2001-2013
</metadata>
<g transform="translate(0.000000,260.000000) scale(0.100000,-0.100000)"
fill="#000000" stroke="none">
<path d="M652 1947 l-652 -652 650 -650 650 -650 653 653 652 652 -650 650
-650 650 -653 -653z m650 -271 c-3 -59 -6 -65 -29 -71 -41 -10 -70 -34 -88
-71 l-16 -34 -75 0 -76 0 7 33 c15 66 49 114 118 167 21 15 100 38 137 39 24
1 25 0 22 -63z m-2 -461 l0 -115 -40 0 -40 0 0 66 c0 36 5 75 11 87 11 21 59
77 66 77 2 0 3 -52 3 -115z m0 -310 c0 -94 0 -95 -24 -95 -14 0 -37 11 -53 24
-37 32 -39 93 -4 130 20 22 32 27 74 35 4 0 7 -42 7 -94z"/>
</g>
</svg>
